<?xml version="1.0" encoding="UTF-8"?>
<svg version="1.1" xmlns="http://www.w3.org/2000/svg" width="3000" height="3000">
<path d="M0 0 C990 0 1980 0 3000 0 C3000 990 3000 1980 3000 3000 C2010 3000 1020 3000 0 3000 C0 2010 0 1020 0 0 Z " fill="#00BF63" transform="translate(0,0)"/>
<path d="M0 0 C1.52370722 -0.00302546 3.04741292 -0.00691692 4.57111597 -0.01159257 C8.7322336 -0.02183011 12.89326465 -0.01970165 17.05438924 -0.01541197 C21.55207184 -0.01293706 26.04973402 -0.02196829 30.54740906 -0.02944946 C39.34813988 -0.04217645 48.14884017 -0.04399272 56.94957864 -0.0416492 C64.10406927 -0.03986394 71.25855064 -0.04162013 78.41304016 -0.04587364 C79.43248212 -0.04646883 80.45192407 -0.04706402 81.50225821 -0.04767724 C83.57343129 -0.04888903 85.64460438 -0.05010316 87.71577746 -0.05131962 C107.12332563 -0.06218708 126.53085642 -0.0600362 145.93840557 -0.05393478 C163.68414532 -0.04876415 181.42983021 -0.06002633 199.1755591 -0.07903299 C217.41097577 -0.09841401 235.64636647 -0.10666707 253.8817935 -0.10290974 C264.11402919 -0.10099838 274.34621816 -0.10347914 284.57844543 -0.11762428 C293.287434 -0.12954225 301.99634708 -0.13093814 310.70533669 -0.11883412 C315.1462093 -0.1129489 319.58694385 -0.11183622 324.02780724 -0.12383652 C328.09772905 -0.13470647 332.1673977 -0.13157883 336.23730773 -0.11757483 C337.70486333 -0.11493101 339.17243885 -0.11728451 340.63997489 -0.1253107 C356.01088246 -0.20350214 371.68509964 3.15659544 383.24255371 14.07319641 C392.93999155 24.89196539 396.54291524 36.86045252 396.13317871 51.30366516 C394.04075924 72.49987442 381.21436117 91.06235546 370.88781738 109.13105774 C366.29178513 117.19979889 361.90510644 125.37033083 357.55505371 133.57319641 C352.91262868 142.32592479 348.24342297 151.0567166 343.39807129 159.69941711 C339.95215058 165.85392809 336.59367196 172.05413305 333.24255371 178.26069641 C329.06238711 186.00057874 324.84100464 193.71396131 320.55114746 201.39350891 C317.06185872 207.6540334 313.64851886 213.95452428 310.24255371 220.26069641 C306.06227382 228.00051857 301.84100551 235.71395975 297.55114746 243.39350891 C294.06185872 249.6540334 290.64851886 255.95452428 287.24255371 262.26069641 C283.06227382 270.00051857 278.84100551 277.71395975 274.55114746 285.39350891 C271.06185872 291.6540334 267.64851886 297.95452428 264.24255371 304.26069641 C260.06024848 312.00426851 255.83773872 319.7219111 251.54455566 327.40449524 C248.11556436 333.55499535 244.77078953 339.74941287 241.43005371 345.94819641 C237.18841025 353.81514961 232.86001527 361.62335402 228.43005371 369.38569641 C222.57947994 379.64794326 217.0152954 390.05009909 211.48034668 400.48432922 C207.52789879 407.93239393 203.52152489 415.34437316 199.39807129 422.69941711 C195.95215058 428.85392809 192.59367196 435.05413305 189.24255371 441.26069641 C185.06238711 449.00057874 180.84100464 456.71396131 176.55114746 464.39350891 C173.06185872 470.6540334 169.64851886 476.95452428 166.24255371 483.26069641 C162.06227382 491.00051857 157.84100551 498.71395975 153.55114746 506.39350891 C150.06185872 512.6540334 146.64851886 518.95452428 143.24255371 525.26069641 C139.06024848 533.00426851 134.83773872 540.7219111 130.54455566 548.40449524 C127.11556436 554.55499535 123.77078953 560.74941287 120.43005371 566.94819641 C116.18841025 574.81514961 111.86001527 582.62335402 107.43005371 590.38569641 C101.57947994 600.64794326 96.0152954 611.05009909 90.48034668 621.48432922 C86.52789879 628.93239393 82.52152489 636.34437316 78.39807129 643.69941711 C74.95215058 649.85392809 71.59367196 656.05413305 68.24255371 662.26069641 C64.06238711 670.00057874 59.84100464 677.71396131 55.55114746 685.39350891 C52.06185872 691.6540334 48.64851886 697.95452428 45.24255371 704.26069641 C41.06227382 712.00051857 36.84100551 719.71395975 32.55114746 727.39350891 C29.06185872 733.6540334 25.64851886 739.95452428 22.24255371 746.26069641 C18.06024848 754.00426851 13.83773872 761.7219111 9.54455566 769.40449524 C6.11556436 775.55499535 2.77078953 781.74941287 -0.56994629 787.94819641 C-4.81158975 795.81514961 -9.13998473 803.62335402 -13.56994629 811.38569641 C-19.42052006 821.64794326 -24.9847046 832.05009909 -30.51965332 842.48432922 C-34.47210121 849.93239393 -38.47847511 857.34437316 -42.60192871 864.69941711 C-46.04784942 870.85392809 -49.40632804 877.05413305 -52.75744629 883.26069641 C-56.93761289 891.00057874 -61.15899536 898.71396131 -65.44885254 906.39350891 C-68.93814136 912.65403355 -72.35147289 918.95452851 -75.75744629 925.26069641 C-79.69677071 932.55418291 -83.66270176 939.83065 -87.69494629 947.07319641 C-88.09818115 947.80256409 -88.50141602 948.53193176 -88.91687012 949.28340149 C-90.64777467 952.40857551 -92.40232106 955.50196423 -94.24182129 958.56538391 C-94.80385254 959.51671204 -95.36588379 960.46804016 -95.94494629 961.44819641 C-96.66230957 962.61415344 -96.66230957 962.61415344 -97.39416504 963.80366516 C-98.61287743 967.27230813 -98.39857438 969.84695886 -97.25744629 973.26069641 C-95.37184592 977.08322928 -93.16966059 980.69012037 -90.94494629 984.32319641 C-89.65715676 986.47526869 -88.37205279 988.62895 -87.08947754 990.78413391 C-86.44317383 991.86791321 -85.79687012 992.9516925 -85.13098145 994.0683136 C-82.35286282 998.80204818 -79.73353593 1003.61555185 -77.13244629 1008.44819641 C-72.82944138 1016.41603969 -68.41090332 1024.30551359 -63.89758301 1032.15596008 C-59.96822696 1038.99701097 -56.10328402 1045.87238541 -52.25744629 1052.76069641 C-47.96286974 1060.45001673 -43.63972112 1068.12100873 -39.25744629 1075.76069641 C-34.87517011 1083.40038644 -30.55222076 1091.07148507 -26.25744629 1098.76069641 C-21.45858521 1107.35130687 -16.6164444 1115.91496926 -11.72399902 1124.45259094 C-6.40914901 1133.73047617 -1.15378271 1143.04172014 4.10144043 1152.35346985 C7.35619446 1158.11925547 10.61536124 1163.88254799 13.87390137 1169.64619446 C16.54694359 1174.37465324 19.21864531 1179.10385725 21.88708496 1183.83491516 C27.44828392 1193.69070548 33.03533919 1203.53100739 38.6585083 1213.35157776 C45.29664112 1224.94500911 51.86050739 1236.57791549 58.37536621 1248.24116516 C63.26142165 1256.98559733 68.19900163 1265.70086437 73.13366699 1274.41792297 C75.29553391 1278.23776796 77.45516426 1282.05887498 79.61462402 1285.88008118 C80.70106226 1287.80252941 81.78765113 1289.72489252 82.87438965 1291.64717102 C85.54733229 1296.37526863 88.21882385 1301.10417381 90.88708496 1305.83491516 C96.44828392 1315.69070548 102.03533919 1325.53100739 107.6585083 1335.35157776 C114.29664112 1346.94500911 120.86050739 1358.57791549 127.37536621 1370.24116516 C132.26558975 1378.99305686 137.20778373 1387.71551113 142.14685059 1396.43989563 C143.72771181 1399.23445968 145.30589514 1402.030518 146.88317871 1404.82710266 C152.44522146 1414.68575896 158.0338933 1424.52848224 163.6585083 1434.35157776 C170.29664112 1445.94500911 176.86050739 1457.57791549 183.37536621 1469.24116516 C188.26558975 1477.99305686 193.20778373 1486.71551113 198.14685059 1495.43989563 C199.72771181 1498.23445968 201.30589514 1501.030518 202.88317871 1503.82710266 C208.44522146 1513.68575896 214.0338933 1523.52848224 219.6585083 1533.35157776 C226.29664112 1544.94500911 232.86050739 1556.57791549 239.37536621 1568.24116516 C244.26142165 1576.98559733 249.19900163 1585.70086437 254.13366699 1594.41792297 C256.29553391 1598.23776796 258.45516426 1602.05887498 260.61462402 1605.88008118 C261.70106226 1607.80252941 262.78765113 1609.72489252 263.87438965 1611.64717102 C266.54733229 1616.37526863 269.21882385 1621.10417381 271.88708496 1625.83491516 C277.44828392 1635.69070548 283.03533919 1645.53100739 288.6585083 1655.35157776 C295.29664112 1666.94500911 301.86050739 1678.57791549 308.37536621 1690.24116516 C313.26558975 1698.99305686 318.20778373 1707.71551113 323.14685059 1716.43989563 C324.72771181 1719.23445968 326.30589514 1722.030518 327.88317871 1724.82710266 C333.44522146 1734.68575896 339.0338933 1744.52848224 344.6585083 1754.35157776 C351.29664112 1765.94500911 357.86050739 1777.57791549 364.37536621 1789.24116516 C369.26142165 1797.98559733 374.19900163 1806.70086437 379.13366699 1815.41792297 C381.29553391 1819.23776796 383.45516426 1823.05887498 385.61462402 1826.88008118 C386.70106226 1828.80252941 387.78765113 1830.72489252 388.87438965 1832.64717102 C391.54733229 1837.37526863 394.21882385 1842.10417381 396.88708496 1846.83491516 C402.44828392 1856.69070548 408.03533919 1866.53100739 413.6585083 1876.35157776 C420.29664112 1887.94500911 426.86050739 1899.57791549 433.37536621 1911.24116516 C438.26558975 1919.99305686 443.20778373 1928.71551113 448.14685059 1937.43989563 C449.72771181 1940.23445968 451.30589514 1943.030518 452.88317871 1945.82710266 C458.44522146 1955.68575896 464.0338933 1965.52848224 469.6585083 1975.35157776 C476.29664112 1986.94500911 482.86050739 1998.57791549 489.37536621 2010.24116516 C494.26142165 2018.98559733 499.19900163 2027.70086437 504.13366699 2036.41792297 C506.29553391 2040.23776796 508.45516426 2044.05887498 510.61462402 2047.88008118 C511.70106226 2049.80252941 512.78765113 2051.72489252 513.87438965 2053.64717102 C516.54733229 2058.37526863 519.21882385 2063.10417381 521.88708496 2067.83491516 C527.44828392 2077.69070548 533.03533919 2087.53100739 538.6585083 2097.35157776 C545.29664112 2108.94500911 551.86050739 2120.57791549 558.37536621 2132.24116516 C563.26558975 2140.99305686 568.20778373 2149.71551113 573.14685059 2158.43989563 C574.72771181 2161.23445968 576.30589514 2164.030518 577.88317871 2166.82710266 C583.44522146 2176.68575896 589.0338933 2186.52848224 594.6585083 2196.35157776 C601.29664112 2207.94500911 607.86050739 2219.57791549 614.37536621 2231.24116516 C619.26142165 2239.98559733 624.19900163 2248.70086437 629.13366699 2257.41792297 C631.29594659 2261.23849712 633.4559939 2265.06033086 635.61584473 2268.88227844 C636.69817141 2270.79742651 637.78069018 2272.71246602 638.86340332 2274.62739563 C641.59962676 2279.46698011 644.33343472 2284.30790276 647.06286621 2289.15132141 C647.61007324 2290.12150208 648.15728027 2291.09168274 648.72106934 2292.09126282 C649.81182623 2294.02531842 650.90168186 2295.95988262 651.99060059 2297.89497375 C654.5591801 2302.44786697 657.15452339 2306.9797097 659.82849121 2311.47163391 C670.3143983 2329.11565774 676.89789125 2345.94435607 673.09411621 2366.81929016 C669.29077623 2379.3183006 661.30651859 2388.32574304 650.07849121 2394.79585266 C638.72992865 2400.40472436 626.82868592 2400.55677876 614.39849854 2400.52139282 C612.87749172 2400.52441918 611.35648643 2400.52831108 609.83548379 2400.53298539 C605.68627847 2400.54321188 601.53716007 2400.5410973 597.3879478 2400.5368048 C592.90109385 2400.53432777 588.41426031 2400.54336386 583.92741394 2400.55084229 C575.14853735 2400.56356463 566.36969137 2400.56538602 557.59080711 2400.56304202 C550.45116216 2400.5612558 543.31152647 2400.56301501 536.17188263 2400.56726646 C535.15401978 2400.56786165 534.13615693 2400.56845684 533.08744974 2400.56907007 C531.01934685 2400.57028188 528.95124396 2400.57149601 526.88314107 2400.57271244 C507.50595811 2400.58357867 488.12879257 2400.58142994 468.75160864 2400.5753276 C451.04810938 2400.57016028 433.34466517 2400.58141064 415.64117679 2400.60042582 C397.43847468 2400.61982643 379.23579858 2400.62805625 361.03308606 2400.62430257 C350.82362128 2400.62239377 340.61420333 2400.62484665 330.40474701 2400.63901711 C321.71239462 2400.6509603 313.02011791 2400.652303 304.32776442 2400.64022694 C299.89841685 2400.6343586 295.46920748 2400.63318179 291.03986931 2400.64522934 C286.97466053 2400.65615736 282.9097042 2400.65290359 278.84450689 2400.63896766 C277.38429457 2400.63633959 275.92406201 2400.63862682 274.46386966 2400.64670352 C249.82493182 2400.77338408 228.31428008 2393.72135097 209.74255371 2377.26069641 C208.74675293 2376.40798157 208.74675293 2376.40798157 207.73083496 2375.53804016 C195.46723764 2364.25141705 186.81011794 2348.67196192 178.74255371 2334.26069641 C177.95993164 2332.87020081 177.95993164 2332.87020081 177.16149902 2331.45161438 C174.20387776 2326.19599136 171.25795515 2320.93396481 168.32067871 2315.66694641 C164.96095693 2309.64487213 161.5761644 2303.63731064 158.18005371 2297.63569641 C157.6471875 2296.69371399 157.11432129 2295.75173157 156.56530762 2294.78120422 C154.95814483 2291.94079594 153.35044835 2289.10069047 151.74255371 2286.26069641 C145.0279005 2274.40073073 138.32924193 2262.53251485 131.68005371 2250.63569641 C127.40548952 2242.988578 123.10083158 2235.36041619 118.74255371 2227.76069641 C113.77873054 2219.10506082 108.89124172 2210.40834864 104.02380371 2201.69819641 C100.11639023 2194.70779075 96.18846302 2187.72943908 92.24255371 2180.76069641 C87.69690675 2172.7327765 83.18046187 2164.68905838 78.68005371 2156.63569641 C74.40554248 2148.98854884 70.10083123 2141.36041556 65.74255371 2133.76069641 C60.77954343 2125.10647829 55.89317967 2116.41101359 51.02600098 2107.70259094 C47.0947677 2100.67036972 43.14666928 2093.64802042 39.18005371 2086.63569641 C38.64702637 2085.69339172 38.11399902 2084.75108704 37.56481934 2083.78022766 C35.95778699 2080.94016322 34.35026926 2078.10037415 32.74255371 2075.26069641 C30.59606776 2071.46939864 28.45018444 2067.67776115 26.30505371 2063.88569641 C25.77057617 2062.94121643 25.23609863 2061.99673645 24.6854248 2061.02363586 C21.87779055 2056.05709146 19.08246735 2051.08405408 16.30505371 2046.10054016 C10.52891702 2035.73889782 4.69654937 2025.42248132 -1.31994629 2015.19819641 C-6.58175955 2006.24996309 -11.59835708 1997.19394854 -16.50598145 1988.0473175 C-20.44556028 1980.71761795 -24.51706775 1973.47553329 -28.66809082 1966.26387024 C-32.58326039 1959.4581393 -36.43040001 1952.61633294 -40.25744629 1945.76069641 C-44.55197097 1938.07134616 -48.87525266 1930.40043046 -53.25744629 1922.76069641 C-58.22136074 1914.1051139 -63.10875895 1905.40834744 -67.97619629 1896.69819641 C-71.88360977 1889.70779075 -75.81153698 1882.72943908 -79.75744629 1875.76069641 C-84.30309325 1867.7327765 -88.81953813 1859.68905838 -93.31994629 1851.63569641 C-97.59445752 1843.98854884 -101.89916877 1836.36041556 -106.25744629 1828.76069641 C-111.22126946 1820.10506082 -116.10875828 1811.40834864 -120.97619629 1802.69819641 C-124.88360977 1795.70779075 -128.81153698 1788.72943908 -132.75744629 1781.76069641 C-137.30309325 1773.7327765 -141.81953813 1765.68905838 -146.31994629 1757.63569641 C-150.59445752 1749.98854884 -154.89916877 1742.36041556 -159.25744629 1734.76069641 C-164.22126946 1726.10506082 -169.10875828 1717.40834864 -173.97619629 1708.69819641 C-177.88360977 1701.70779075 -181.81153698 1694.72943908 -185.75744629 1687.76069641 C-190.30309325 1679.7327765 -194.81953813 1671.68905838 -199.31994629 1663.63569641 C-204.07345229 1655.13162194 -208.87405091 1646.65669825 -213.72302246 1638.20674133 C-217.57613209 1631.48144077 -221.35928102 1624.71860429 -225.13244629 1617.94819641 C-229.76435159 1609.63885838 -234.4945421 1601.39655544 -239.31994629 1593.19819641 C-244.58185438 1584.25002123 -249.5983593 1575.19394441 -254.50598145 1566.0473175 C-258.44633836 1558.71617032 -262.51915203 1551.47295904 -266.67028809 1544.25947571 C-270.56090393 1537.4952613 -274.38912621 1530.69795731 -278.19494629 1523.88569641 C-284.31263696 1512.93917798 -290.47091447 1502.01624516 -296.64855957 1491.10346985 C-299.89676733 1485.36414797 -303.14037656 1479.62222574 -306.3848877 1473.8808136 C-309.07921087 1469.11337415 -311.77456531 1464.34652448 -314.47229004 1459.58100891 C-320.68477659 1448.6036055 -326.86701743 1437.60984666 -333.02453613 1426.60151672 C-339.06808056 1415.80192915 -345.16025136 1405.03005715 -351.25744629 1394.26069641 C-357.9720995 1382.40073073 -364.67075807 1370.53251485 -371.31994629 1358.63569641 C-375.59451048 1350.988578 -379.89916842 1343.36041619 -384.25744629 1335.76069641 C-389.22126946 1327.10506082 -394.10875828 1318.40834864 -398.97619629 1309.69819641 C-402.88360977 1302.70779075 -406.81153698 1295.72943908 -410.75744629 1288.76069641 C-415.30309325 1280.7327765 -419.81953813 1272.68905838 -424.31994629 1264.63569641 C-429.07345229 1256.13162194 -433.87405091 1247.65669825 -438.72302246 1239.20674133 C-442.57613209 1232.48144077 -446.35928102 1225.71860429 -450.13244629 1218.94819641 C-454.76435159 1210.63885838 -459.4945421 1202.39655544 -464.31994629 1194.19819641 C-469.58185438 1185.25002123 -474.5983593 1176.19394441 -479.50598145 1167.0473175 C-483.44633836 1159.71617032 -487.51915203 1152.47295904 -491.67028809 1145.25947571 C-495.56090393 1138.4952613 -499.38912621 1131.69795731 -503.19494629 1124.88569641 C-509.31263696 1113.93917798 -515.47091447 1103.01624516 -521.64855957 1092.10346985 C-524.89676733 1086.36414797 -528.14037656 1080.62222574 -531.3848877 1074.8808136 C-534.07921087 1070.11337415 -536.77456531 1065.34652448 -539.47229004 1060.58100891 C-545.68477659 1049.6036055 -551.86701743 1038.60984666 -558.02453613 1027.60151672 C-561.9404733 1020.60388366 -565.87342469 1013.61612141 -569.81994629 1006.63569641 C-570.34362793 1005.70700745 -570.86730957 1004.77831848 -571.40686035 1003.82148743 C-574.21958477 998.83871241 -577.05676748 993.87166842 -579.92541504 988.92085266 C-580.82441528 987.35875061 -580.82441528 987.35875061 -581.74157715 985.76509094 C-582.88983398 983.77084205 -584.04522476 981.78067797 -585.2088623 979.79536438 C-585.72505127 978.89575989 -586.24124023 977.9961554 -586.77307129 977.06929016 C-587.22972168 976.283526 -587.68637207 975.49776184 -588.15686035 974.68818665 C-590.01113384 970.59833721 -590.7735746 967.66997703 -589.20031738 963.3742218 C-588.6494043 962.37898499 -588.09849121 961.38374817 -587.53088379 960.35835266 C-586.9180957 959.23332336 -586.30530762 958.10829407 -585.6739502 956.94917297 C-584.99379871 955.74031723 -584.31328808 954.5316635 -583.63244629 953.32319641 C-582.93627052 952.05929149 -582.24146313 950.79463194 -581.54797363 949.5292511 C-576.89039697 941.06111349 -572.11055357 932.65963266 -567.31555176 924.26875305 C-562.23788747 915.33941214 -557.45021919 906.26369324 -552.65951538 897.17857361 C-547.55246793 887.49928016 -542.29793768 877.92669616 -536.85900879 868.42866516 C-533.16641516 861.95043072 -529.6726637 855.38892176 -526.25744629 848.76069641 C-522.35354577 841.18403898 -518.30538625 833.71956816 -514.06994629 826.32319641 C-508.77161118 817.06722414 -503.73122172 807.69325183 -498.75744629 798.26069641 C-493.39827026 788.09896263 -487.92347622 778.03020823 -482.21057129 768.06147766 C-477.55155375 759.88513253 -473.14705619 751.58347448 -468.75744629 743.26069641 C-463.39800328 733.0990976 -457.92348274 723.03021961 -452.21057129 713.06147766 C-447.55155375 704.88513253 -443.14705619 696.58347448 -438.75744629 688.26069641 C-433.39800328 678.0990976 -427.92348274 668.03021961 -422.21057129 658.06147766 C-417.16301377 649.20326409 -412.41377344 640.19476671 -407.65896606 631.17747498 C-402.55209851 621.49855231 -397.29773271 611.92633822 -391.85900879 602.42866516 C-388.16641516 595.95043072 -384.6726637 589.38892176 -381.25744629 582.76069641 C-377.35354577 575.18403898 -373.30538625 567.71956816 -369.06994629 560.32319641 C-363.77161118 551.06722414 -358.73122172 541.69325183 -353.75744629 532.26069641 C-348.39827026 522.09896263 -342.92347622 512.03020823 -337.21057129 502.06147766 C-332.55155375 493.88513253 -328.14705619 485.58347448 -323.75744629 477.26069641 C-318.39800328 467.0990976 -312.92348274 457.03021961 -307.21057129 447.06147766 C-302.55155375 438.88513253 -298.14705619 430.58347448 -293.75744629 422.26069641 C-288.88290613 413.018482 -283.95334082 403.82788095 -278.75744629 394.76069641 C-272.76930108 384.30533998 -267.12242927 373.68297018 -261.49279785 363.03218079 C-260.77247707 361.66952054 -260.05210012 360.30688998 -259.33166504 358.94429016 C-258.98056671 358.28021149 -258.62946838 357.61613281 -258.26773071 356.93193054 C-254.29596386 349.42926401 -250.22545576 341.9815437 -246.14416504 334.53804016 C-244.11123381 330.82970041 -242.09510806 327.11277891 -240.08947754 323.38960266 C-234.82638884 313.62161331 -229.51006863 303.89603961 -224.00744629 294.26069641 C-218.34608305 284.3387822 -212.98367094 274.27325521 -207.6550293 264.17060852 C-202.66085827 254.70779362 -197.53126919 245.34582677 -192.21057129 236.06147766 C-187.55155375 227.88513253 -183.14705619 219.58347448 -178.75744629 211.26069641 C-173.39800328 201.0990976 -167.92348274 191.03021961 -162.21057129 181.06147766 C-157.16091926 172.19958834 -152.41037687 163.18706378 -147.65292358 154.16639709 C-143.16618141 145.664586 -138.60443683 137.22507559 -133.81994629 128.88569641 C-128.41216384 119.45639047 -123.31575208 109.88003297 -118.25744629 100.26069641 C-74.69503674 17.4946246 -74.69503674 17.4946246 -30.84729004 3.52241516 C-20.55085816 0.58286214 -10.67606759 -0.030253 0 0 Z " fill="#FEFEFE" transform="translate(1847.2574462890625,299.7393035888672)"/>
<path d="M0 0 C1.488831 -0.00230704 2.97766086 -0.00548519 4.46648836 -0.00945449 C8.54073473 -0.01777849 12.61488701 -0.01368805 16.68913364 -0.00748205 C21.09016611 -0.00294843 25.49118264 -0.00994605 29.89221191 -0.01544189 C38.5094104 -0.02432959 47.12657403 -0.02241614 55.74377388 -0.01661661 C62.75285594 -0.01209534 69.76192825 -0.01148925 76.77101135 -0.01366425 C77.76956442 -0.01397071 78.76811749 -0.01427718 79.79692975 -0.01459293 C81.82573251 -0.01523241 83.85453527 -0.01588083 85.88333803 -0.01653811 C104.90525475 -0.02224019 123.92715219 -0.01568666 142.94906574 -0.00493738 C159.24539108 0.00398704 175.54168789 0.00245501 191.8380127 -0.0067749 C210.7806077 -0.01749865 229.72318578 -0.02167934 248.66578341 -0.01555037 C250.68946616 -0.01491332 252.71314891 -0.01428457 254.73683167 -0.01366425 C256.23017305 -0.01320142 256.23017305 -0.01320142 257.75368294 -0.01272924 C264.74443841 -0.01100779 271.73518309 -0.01390575 278.72593689 -0.01862335 C287.26021968 -0.02425609 295.79446572 -0.02266618 304.32874435 -0.01206186 C308.67715566 -0.00683549 313.02550589 -0.00469596 317.37391663 -0.01136017 C321.36646856 -0.01738596 325.35890369 -0.01393709 329.35144526 -0.00340506 C330.78417331 -0.00119864 332.21691154 -0.00224393 333.64963287 -0.00715664 C341.25190337 -0.03119307 348.73735096 0.27847268 356.28772736 1.13312149 C356.97297768 1.20904037 357.658228 1.28495926 358.36424348 1.36317872 C381.37846932 4.22056921 401.23749166 18.28004389 415.65002441 35.91949463 C422.30160669 44.51909353 427.8710652 53.84639617 433.28918457 63.25396729 C433.85911133 64.24203369 434.42903809 65.2301001 435.01623535 66.24810791 C442.82601201 79.81045176 450.5226334 93.43314568 458.14172363 107.10357666 C462.08718052 114.16198336 466.13031977 121.15722534 470.22668457 128.12896729 C475.9104301 137.80490542 481.39708717 147.57952668 486.82629395 157.40020752 C492.01814472 166.78718694 497.31357988 176.11028897 502.65686035 185.41168213 C505.83139303 190.93933834 508.99887025 196.47102902 512.16418457 202.00396729 C512.67352036 202.89394913 512.67352036 202.89394913 513.19314575 203.8019104 C517.98339331 212.17514663 522.71846197 220.57724228 527.41418457 229.00396729 C531.92688979 237.10121007 536.53068731 245.13669056 541.22668457 253.12896729 C546.9104301 262.80490542 552.39708717 272.57952668 557.82629395 282.40020752 C563.01814472 291.78718694 568.31357988 301.11028897 573.65686035 310.41168213 C576.83139303 315.93933834 579.99887025 321.47102902 583.16418457 327.00396729 C583.67352036 327.89394913 583.67352036 327.89394913 584.19314575 328.8019104 C588.98339331 337.17514663 593.71846197 345.57724228 598.41418457 354.00396729 C602.92688979 362.10121007 607.53068731 370.13669056 612.22668457 378.12896729 C617.9104301 387.80490542 623.39708717 397.57952668 628.82629395 407.40020752 C634.01814472 416.78718694 639.31357988 426.11028897 644.65686035 435.41168213 C647.83139303 440.93933834 650.99887025 446.47102902 654.16418457 452.00396729 C654.67352036 452.89394913 654.67352036 452.89394913 655.19314575 453.8019104 C659.98339331 462.17514663 664.71846197 470.57724228 669.41418457 479.00396729 C673.92688979 487.10121007 678.53068731 495.13669056 683.22668457 503.12896729 C688.9104301 512.80490542 694.39708717 522.57952668 699.82629395 532.40020752 C705.01814472 541.78718694 710.31357988 551.11028897 715.65686035 560.41168213 C718.83139303 565.93933834 721.99887025 571.47102902 725.16418457 577.00396729 C725.67352036 577.89394913 725.67352036 577.89394913 726.19314575 578.8019104 C730.98339331 587.17514663 735.71846197 595.57724228 740.41418457 604.00396729 C744.92688979 612.10121007 749.53068731 620.13669056 754.22668457 628.12896729 C759.9104301 637.80490542 765.39708717 647.57952668 770.82629395 657.40020752 C776.00513743 666.76366947 781.28717178 676.06342681 786.61730957 685.34136963 C789.63784595 690.60348982 792.6490242 695.87096131 795.6600647 701.13851929 C796.69659185 702.95133709 797.73392392 704.76369233 798.7713623 706.57598877 C800.04094493 708.79605088 801.30608114 711.01866366 802.56604004 713.24420166 C803.65456736 715.14550015 804.76547253 717.03431472 805.90686035 718.90435791 C806.60851318 720.07514893 806.60851318 720.07514893 807.32434082 721.26959229 C807.93547729 722.2562085 807.93547729 722.2562085 808.55895996 723.26275635 C809.5617697 725.99726528 809.14799237 727.48803554 808.28918457 730.25396729 C807.03674316 732.79571533 807.03674316 732.79571533 805.43762207 735.51568604 C804.84143066 736.53855713 804.24523926 737.56142822 803.63098145 738.61529541 C802.65741699 740.26175049 802.65741699 740.26175049 801.66418457 741.94146729 C800.98439539 743.1031365 800.30537209 744.26525421 799.6270752 745.42779541 C798.21760154 747.84214175 796.8048547 750.25452651 795.38977051 752.66558838 C792.15862911 758.17715354 788.97650274 763.71698838 785.78918457 769.25396729 C784.54069811 771.41815179 783.29199943 773.58221387 782.04309082 775.74615479 C779.52849021 780.10462117 777.01563796 784.4640892 774.50402832 788.82427979 C768.45863253 799.316289 762.39797446 809.79872047 756.28918457 820.25396729 C745.82760798 838.16244354 735.48824944 856.14020629 725.21310425 874.15612793 C720.02852157 883.24334884 714.78501952 892.29466315 709.5032959 901.32574463 C699.63217442 918.20816911 689.8997292 935.16996464 680.21209717 952.15814209 C675.05520812 961.19832251 669.83385048 970.19904353 664.57580566 979.1807251 C660.12002021 986.80302664 655.72533905 994.45935121 651.35168457 1002.12896729 C641.43745759 1019.51214675 631.4544329 1036.8545414 621.35168457 1054.12896729 C616.30089239 1062.76684394 611.3092278 1071.43732393 606.35168457 1080.12896729 C585.31248629 1117.00644915 585.31248629 1117.00644915 575.21838379 1133.60992432 C572.64988211 1137.8678824 570.29055779 1142.12745295 568.16418457 1146.62896729 C562.75808153 1157.86922258 554.40396553 1167.87654488 546.28918457 1177.25396729 C545.76453613 1177.86369385 545.2398877 1178.47342041 544.69934082 1179.10162354 C529.88172919 1195.05035055 506.91413952 1206.52461424 485.05885094 1207.38046712 C483.38501083 1207.38152375 483.38501083 1207.38152375 481.67735577 1207.38260174 C479.7324157 1207.38743841 479.7324157 1207.38743841 477.74818391 1207.39237279 C476.32147696 1207.39090186 474.8947701 1207.38933416 473.46806335 1207.38768005 C471.94297219 1207.38954932 470.4178815 1207.39185048 468.89279157 1207.39454538 C464.70932536 1207.40065549 460.52587915 1207.40053071 456.34240949 1207.399351 C451.82764019 1207.3991468 447.31287728 1207.40466763 442.79811096 1207.40940857 C433.95573138 1207.41771126 425.11335847 1207.42046323 416.27097531 1207.42102095 C409.08301143 1207.42149627 401.89504975 1207.42355183 394.70708656 1207.42672157 C374.32421361 1207.43552696 353.94134592 1207.44014111 333.55847105 1207.4393911 C332.45986774 1207.43935114 331.36126443 1207.43931119 330.22937012 1207.43927002 C329.12942427 1207.43922914 328.02947842 1207.43918826 326.89620087 1207.43914614 C309.06871251 1207.43873966 291.24124526 1207.44831 273.41376301 1207.46240839 C255.10503069 1207.47677303 236.79630868 1207.48367853 218.48757058 1207.48281461 C208.21004457 1207.48248268 197.9325407 1207.48522805 187.65501976 1207.49599266 C178.90493108 1207.50509878 170.15487458 1207.50727196 161.40478321 1207.50048324 C156.94181093 1207.49721867 152.47890039 1207.49715912 148.01593399 1207.50583649 C143.9268344 1207.51370508 139.83784548 1207.51226638 135.74874858 1207.50355235 C134.27301527 1207.50201817 132.7972737 1207.50383046 131.32155015 1207.50941243 C114.36643794 1207.56927528 100.30254378 1204.81030928 87.28918457 1193.25396729 C81.73454833 1187.05129015 78.64364062 1180.17810431 76.28918457 1172.25396729 C76.09840332 1171.63779541 75.90762207 1171.02162354 75.71105957 1170.38677979 C70.85641193 1145.84383896 86.04574825 1124.88116789 97.94616699 1104.92730713 C102.66742332 1097.01057921 107.31983742 1089.05781404 111.91418457 1081.06646729 C118.41700922 1069.75879666 124.97373363 1058.48373467 131.55529785 1047.22174072 C134.46929297 1042.23405772 137.37901025 1037.24388023 140.28918457 1032.25396729 C141.455831 1030.25395548 142.62249766 1028.25395548 143.78918457 1026.25396729 C144.36668457 1025.26396729 144.94418457 1024.27396729 145.53918457 1023.25396729 C192.78918457 942.25396729 192.78918457 942.25396729 194.53894043 939.25445557 C195.70650185 937.25287518 196.87398221 935.25124751 198.04138184 933.24957275 C200.94369873 928.27336336 203.84738373 923.29796274 206.75402832 918.32427979 C212.81824227 907.94384769 218.85458784 897.54833652 224.85168457 887.12896729 C229.96873753 878.23996783 235.14671802 869.39044029 240.38195801 860.57061768 C244.51150746 853.60121848 248.56535039 846.59019226 252.60168457 839.56646729 C257.76287171 830.58770783 262.99422906 821.65447723 268.28918457 812.75396729 C274.82922515 801.75851911 281.24945231 790.69856841 287.62902832 779.60943604 C291.22735616 773.35567818 294.8460529 767.11401891 298.47668457 760.87896729 C299.0447583 759.89919922 299.61283203 758.91943115 300.19812012 757.90997314 C303.01732749 753.06611749 305.88655867 748.26599017 308.86730957 743.51959229 C309.43296631 742.60999756 309.99862305 741.70040283 310.5814209 740.76324463 C311.64740902 739.05646146 312.72719406 737.35818726 313.82312012 735.67047119 C314.29531982 734.91169678 314.76751953 734.15292236 315.25402832 733.37115479 C315.67289307 732.71743896 316.09175781 732.06372314 316.52331543 731.39019775 C317.9426759 727.43119103 316.71108617 724.17833379 315.02087402 720.47515869 C314.48679932 719.52818115 313.95272461 718.58120361 313.40246582 717.60552979 C312.80111816 716.53045166 312.19977051 715.45537354 311.5802002 714.34771729 C310.92729004 713.20302979 310.27437988 712.05834229 309.60168457 710.87896729 C308.91944932 709.6683647 308.23781772 708.45742173 307.5567627 707.24615479 C302.65372615 698.55082148 297.62559008 689.92874061 292.56628418 681.32354736 C287.48730583 672.66167404 282.6096844 663.89453917 277.75183105 655.10723877 C272.5600136 645.72044898 267.26469877 636.39748806 261.92150879 627.09625244 C258.74697634 621.56859663 255.57931801 616.03700873 252.41418457 610.50396729 C252.07529205 609.91164307 251.73639954 609.31931885 251.38723755 608.70904541 C245.96782886 599.23293453 240.61559216 589.72069715 235.29309082 580.1897583 C229.69437294 570.17120974 223.99850614 560.20976588 218.28918457 550.25396729 C215.66240537 545.67165072 213.03724927 541.08841078 210.41418457 536.50396729 C210.07471802 535.91082733 209.73525146 535.31768738 209.38549805 534.70657349 C204.59516472 526.33315153 199.86000627 517.93087012 195.16418457 509.50396729 C190.65147935 501.4067245 186.04768183 493.37124401 181.35168457 485.37896729 C175.66793905 475.70302915 170.18128197 465.92840789 164.7520752 456.10772705 C159.56022442 446.72074763 154.26478926 437.3976456 148.92150879 428.09625244 C145.74697634 422.56859663 142.57931801 417.03700873 139.41418457 411.50396729 C139.07529205 410.91164307 138.73639954 410.31931885 138.38723755 409.70904541 C132.96782886 400.23293453 127.61559216 390.72069715 122.29309082 381.1897583 C116.69437294 371.17120974 110.99850614 361.20976588 105.28918457 351.25396729 C102.66240543 346.67165082 100.03709945 342.08849645 97.41418457 337.50396729 C97.07538269 336.91182434 96.73658081 336.3196814 96.38751221 335.70959473 C90.96801974 326.23329686 85.61569149 316.72087503 80.29309082 307.1897583 C74.69437294 297.17120974 68.99850614 287.20976588 63.28918457 277.25396729 C60.66240537 272.67165072 58.03724927 268.08841078 55.41418457 263.50396729 C55.07471802 262.91082733 54.73525146 262.31768738 54.38549805 261.70657349 C49.59516472 253.33315153 44.86000627 244.93087012 40.16418457 236.50396729 C35.65147935 228.4067245 31.04768183 220.37124401 26.35168457 212.37896729 C20.66793905 202.70302915 15.18128197 192.92840789 9.7520752 183.10772705 C4.56022442 173.72074763 -0.73521074 164.3976456 -6.07849121 155.09625244 C-9.25302366 149.56859663 -12.42068199 144.03700873 -15.58581543 138.50396729 C-15.92470795 137.91164307 -16.26360046 137.31931885 -16.61276245 136.70904541 C-22.02449564 127.24635554 -27.37266368 117.74949988 -32.68273926 108.22930908 C-36.96521708 100.55882233 -41.30971904 92.92561528 -45.71765137 85.32647705 C-55.09288924 69.05660249 -61.50937174 51.87029909 -56.64831543 32.87896729 C-52.52339057 21.6309083 -44.8993822 12.06064014 -34.27331543 6.43365479 C-22.65317425 1.24966939 -12.59171757 -0.04259198 0 0 Z " fill="#FEFEFE" transform="translate(536.7108154296875,1018.7460327148438)"/>
</svg>
