<svg xmlns="http://www.w3.org/2000/svg" xmlns:xlink="http://www.w3.org/1999/xlink" width="1920" zoomAndPan="magnify" viewBox="0 0 1440 356.250003" height="475" preserveAspectRatio="xMidYMid meet" version="1.0"><defs><g/><clipPath id="cb80b83048"><path d="M 81.128906 27.460938 L 379.75 27.460938 L 379.75 326.082031 L 81.128906 326.082031 Z M 81.128906 27.460938 " clip-rule="nonzero"/></clipPath><clipPath id="9e575b8fd7"><path d="M 203.761719 45.457031 L 342.324219 45.457031 L 342.324219 308.082031 L 203.761719 308.082031 Z M 203.761719 45.457031 " clip-rule="nonzero"/></clipPath></defs><g clip-path="url(#cb80b83048)"><path fill="#ffffff" d="M 51.265625 -2.402344 L 409.613281 -2.402344 L 409.613281 355.941406 L 51.265625 355.941406 Z M 51.265625 -2.402344 " fill-opacity="1" fill-rule="nonzero"/><path fill="#00bf63" d="M 51.265625 -2.402344 L 409.613281 -2.402344 L 409.613281 355.941406 L 51.265625 355.941406 Z M 51.265625 -2.402344 " fill-opacity="1" fill-rule="nonzero"/></g><g clip-path="url(#9e575b8fd7)"><path fill="#000000" d="M 298.1875 308.082031 C 292.523438 308.082031 290.074219 304.511719 288.042969 300.867188 L 203.765625 151.410156 L 257.585938 52.679688 C 259.453125 49.316406 262.347656 45.457031 268.160156 45.457031 L 305.992188 45.457031 C 308.269531 45.457031 310.097656 46.320312 311.023438 47.921875 C 312.019531 49.539062 312 51.675781 310.941406 53.777344 L 257.542969 151.285156 C 257.496094 151.367188 257.496094 151.464844 257.542969 151.539062 L 341.410156 299.816406 C 342.460938 301.910156 342.484375 304.042969 341.492188 305.660156 C 340.519531 307.226562 338.726562 308.082031 336.445312 308.082031 Z M 298.1875 308.082031 " fill-opacity="1" fill-rule="nonzero"/></g><path fill="#000000" d="M 139.03125 256.261719 C 136.753906 256.261719 134.960938 255.402344 134 253.839844 C 133.003906 252.222656 133.03125 250.089844 134.082031 247.984375 L 159.859375 203.769531 C 159.902344 203.683594 159.902344 203.597656 159.859375 203.511719 L 119.507812 132.4375 C 118.457031 130.347656 118.4375 128.210938 119.441406 126.59375 C 120.410156 125.03125 122.191406 124.171875 124.472656 124.171875 L 162.449219 124.171875 C 168.113281 124.171875 170.667969 127.898438 172.605469 131.394531 L 213.640625 203.640625 C 213.476562 203.898438 187.492188 249.03125 187.492188 249.03125 C 185.613281 252.398438 182.714844 256.261719 176.90625 256.261719 Z M 139.03125 256.261719 " fill-opacity="1" fill-rule="nonzero"/><g fill="#000000" fill-opacity="1"><g transform="translate(294.392094, 257.805778)"><g><path d="M 144.84375 -53.96875 C 142.738281 -35.976562 136.097656 -22.09375 124.921875 -12.3125 C 113.742188 -2.539062 98.890625 2.34375 80.359375 2.34375 C 60.273438 2.34375 44.175781 -4.859375 32.0625 -19.265625 C 19.957031 -33.671875 13.90625 -52.945312 13.90625 -77.09375 L 13.90625 -93.4375 C 13.90625 -109.25 16.726562 -123.148438 22.375 -135.140625 C 28.019531 -147.128906 36.019531 -156.335938 46.375 -162.765625 C 56.726562 -169.191406 68.71875 -172.40625 82.34375 -172.40625 C 100.414062 -172.40625 114.898438 -167.363281 125.796875 -157.28125 C 136.703125 -147.195312 143.050781 -133.238281 144.84375 -115.40625 L 122.296875 -115.40625 C 120.347656 -128.957031 116.125 -138.769531 109.625 -144.84375 C 103.125 -150.914062 94.03125 -153.953125 82.34375 -153.953125 C 68.019531 -153.953125 56.785156 -148.65625 48.640625 -138.0625 C 40.503906 -127.46875 36.4375 -112.398438 36.4375 -92.859375 L 36.4375 -76.390625 C 36.4375 -57.929688 40.289062 -43.25 48 -32.34375 C 55.71875 -21.445312 66.503906 -16 80.359375 -16 C 92.816406 -16 102.375 -18.820312 109.03125 -24.46875 C 115.695312 -30.113281 120.117188 -39.945312 122.296875 -53.96875 Z M 144.84375 -53.96875 "/></g></g><g transform="translate(450.09949, 257.805778)"><g><path d="M 10.625 -64.359375 C 10.625 -76.742188 13.054688 -87.878906 17.921875 -97.765625 C 22.796875 -107.648438 29.570312 -115.28125 38.25 -120.65625 C 46.9375 -126.03125 56.847656 -128.71875 67.984375 -128.71875 C 85.191406 -128.71875 99.109375 -122.757812 109.734375 -110.84375 C 120.367188 -98.9375 125.6875 -83.09375 125.6875 -63.3125 L 125.6875 -61.796875 C 125.6875 -49.484375 123.328125 -38.441406 118.609375 -28.671875 C 113.898438 -18.898438 107.164062 -11.285156 98.40625 -5.828125 C 89.644531 -0.378906 79.582031 2.34375 68.21875 2.34375 C 51.082031 2.34375 37.195312 -3.613281 26.5625 -15.53125 C 15.9375 -27.445312 10.625 -43.21875 10.625 -62.84375 Z M 32.359375 -61.796875 C 32.359375 -47.773438 35.609375 -36.519531 42.109375 -28.03125 C 48.609375 -19.539062 57.3125 -15.296875 68.21875 -15.296875 C 79.195312 -15.296875 87.914062 -19.597656 94.375 -28.203125 C 100.84375 -36.804688 104.078125 -48.859375 104.078125 -64.359375 C 104.078125 -78.222656 100.785156 -89.457031 94.203125 -98.0625 C 87.617188 -106.664062 78.878906 -110.96875 67.984375 -110.96875 C 57.316406 -110.96875 48.710938 -106.722656 42.171875 -98.234375 C 35.628906 -89.742188 32.359375 -77.597656 32.359375 -61.796875 Z M 32.359375 -61.796875 "/></g></g><g transform="translate(586.533277, 257.805778)"><g><path d="M 36.671875 -126.390625 L 37.265625 -112.375 C 46.523438 -123.269531 59.019531 -128.71875 74.75 -128.71875 C 92.425781 -128.71875 104.457031 -121.941406 110.84375 -108.390625 C 115.050781 -114.460938 120.519531 -119.367188 127.25 -123.109375 C 133.988281 -126.847656 141.953125 -128.71875 151.140625 -128.71875 C 178.867188 -128.71875 192.96875 -114.039062 193.4375 -84.6875 L 193.4375 0 L 171.828125 0 L 171.828125 -83.40625 C 171.828125 -92.4375 169.757812 -99.1875 165.625 -103.65625 C 161.5 -108.132812 154.570312 -110.375 144.84375 -110.375 C 136.820312 -110.375 130.160156 -107.976562 124.859375 -103.1875 C 119.566406 -98.40625 116.492188 -91.960938 115.640625 -83.859375 L 115.640625 0 L 93.90625 0 L 93.90625 -82.8125 C 93.90625 -101.1875 84.914062 -110.375 66.9375 -110.375 C 52.757812 -110.375 43.0625 -104.34375 37.84375 -92.28125 L 37.84375 0 L 16.234375 0 L 16.234375 -126.390625 Z M 36.671875 -126.390625 "/></g></g><g transform="translate(796.206774, 257.805778)"><g><path d="M 36.671875 -126.390625 L 37.265625 -112.375 C 46.523438 -123.269531 59.019531 -128.71875 74.75 -128.71875 C 92.425781 -128.71875 104.457031 -121.941406 110.84375 -108.390625 C 115.050781 -114.460938 120.519531 -119.367188 127.25 -123.109375 C 133.988281 -126.847656 141.953125 -128.71875 151.140625 -128.71875 C 178.867188 -128.71875 192.96875 -114.039062 193.4375 -84.6875 L 193.4375 0 L 171.828125 0 L 171.828125 -83.40625 C 171.828125 -92.4375 169.757812 -99.1875 165.625 -103.65625 C 161.5 -108.132812 154.570312 -110.375 144.84375 -110.375 C 136.820312 -110.375 130.160156 -107.976562 124.859375 -103.1875 C 119.566406 -98.40625 116.492188 -91.960938 115.640625 -83.859375 L 115.640625 0 L 93.90625 0 L 93.90625 -82.8125 C 93.90625 -101.1875 84.914062 -110.375 66.9375 -110.375 C 52.757812 -110.375 43.0625 -104.34375 37.84375 -92.28125 L 37.84375 0 L 16.234375 0 L 16.234375 -126.390625 Z M 36.671875 -126.390625 "/></g></g><g transform="translate(1005.880272, 257.805778)"><g><path d="M 94.375 0 C 93.132812 -2.488281 92.125 -6.925781 91.34375 -13.3125 C 81.300781 -2.875 69.304688 2.34375 55.359375 2.34375 C 42.898438 2.34375 32.679688 -1.179688 24.703125 -8.234375 C 16.722656 -15.285156 12.734375 -24.222656 12.734375 -35.046875 C 12.734375 -48.203125 17.734375 -58.421875 27.734375 -65.703125 C 37.742188 -72.984375 51.820312 -76.625 69.96875 -76.625 L 90.984375 -76.625 L 90.984375 -86.546875 C 90.984375 -94.109375 88.722656 -100.125 84.203125 -104.59375 C 79.691406 -109.070312 73.039062 -111.3125 64.25 -111.3125 C 56.53125 -111.3125 50.0625 -109.363281 44.84375 -105.46875 C 39.632812 -101.582031 37.03125 -96.875 37.03125 -91.34375 L 15.296875 -91.34375 C 15.296875 -97.644531 17.535156 -103.734375 22.015625 -109.609375 C 26.492188 -115.492188 32.566406 -120.148438 40.234375 -123.578125 C 47.910156 -127.003906 56.34375 -128.71875 65.53125 -128.71875 C 80.09375 -128.71875 91.5 -125.078125 99.75 -117.796875 C 108.007812 -110.515625 112.289062 -100.488281 112.59375 -87.71875 L 112.59375 -29.546875 C 112.59375 -17.941406 114.078125 -8.71875 117.046875 -1.875 L 117.046875 0 Z M 58.515625 -16.46875 C 65.296875 -16.46875 71.722656 -18.21875 77.796875 -21.71875 C 83.867188 -25.226562 88.265625 -29.785156 90.984375 -35.390625 L 90.984375 -61.328125 L 74.0625 -61.328125 C 47.582031 -61.328125 34.34375 -53.578125 34.34375 -38.078125 C 34.34375 -31.304688 36.597656 -26.007812 41.109375 -22.1875 C 45.628906 -18.375 51.429688 -16.46875 58.515625 -16.46875 Z M 58.515625 -16.46875 "/></g></g><g transform="translate(1136.006331, 257.805778)"><g><path d="M 36.796875 -126.390625 L 37.5 -110.5 C 47.15625 -122.644531 59.769531 -128.71875 75.34375 -128.71875 C 102.050781 -128.71875 115.519531 -113.648438 115.75 -83.515625 L 115.75 0 L 94.140625 0 L 94.140625 -83.640625 C 94.066406 -92.742188 91.984375 -99.472656 87.890625 -103.828125 C 83.804688 -108.191406 77.441406 -110.375 68.796875 -110.375 C 61.785156 -110.375 55.632812 -108.503906 50.34375 -104.765625 C 45.050781 -101.035156 40.925781 -96.132812 37.96875 -90.0625 L 37.96875 0 L 16.359375 0 L 16.359375 -126.390625 Z M 36.796875 -126.390625 "/></g></g><g transform="translate(1268.001347, 257.805778)"><g><path d="M 11.09375 -64.25 C 11.09375 -83.632812 15.6875 -99.222656 24.875 -111.015625 C 34.0625 -122.816406 46.09375 -128.71875 60.96875 -128.71875 C 75.769531 -128.71875 87.488281 -123.65625 96.125 -113.53125 L 96.125 -179.421875 L 117.734375 -179.421875 L 117.734375 0 L 97.890625 0 L 96.828125 -13.546875 C 88.179688 -2.953125 76.148438 2.34375 60.734375 2.34375 C 46.097656 2.34375 34.164062 -3.648438 24.9375 -15.640625 C 15.707031 -27.640625 11.09375 -43.296875 11.09375 -62.609375 Z M 32.703125 -61.796875 C 32.703125 -47.460938 35.660156 -36.242188 41.578125 -28.140625 C 47.492188 -20.046875 55.671875 -16 66.109375 -16 C 79.816406 -16 89.820312 -22.148438 96.125 -34.453125 L 96.125 -92.515625 C 89.664062 -104.421875 79.738281 -110.375 66.34375 -110.375 C 55.75 -110.375 47.492188 -106.285156 41.578125 -98.109375 C 35.660156 -89.941406 32.703125 -77.835938 32.703125 -61.796875 Z M 32.703125 -61.796875 "/></g></g></g></svg>